# xmcd
#
# Track frame offsets: 
#        150
#        6277
#        18905
#        38011
#        62203
#        88328
#        105028
#        124733
#        139672
#        150705
#        154622
#        169210
#        173863
#        196032
#        205799
#        220959
#        229083
#        245965
#        261136
#        279971
#        301198
#
# Disc length: 4138 seconds
#
# Revision: 0
# Processed by: cddbd v1.5.2PL0 Copyright (c) Steve Scherf et al.
# Submitted via: ExactAudioCopy v0.95b4
#
DISCID=17102815
DTITLE=The Beatles  - AB  Road - Complete Purple Chick Set v1.1 Jan.27
DTITLE=Various Artist - D4  FLAC
DYEAR=1900
DGENRE=
TTITLE0=Improvisation 27.34
TTITLE1=Don't Let Me Down 27.35
TTITLE2=Hava Nageilah 27.36
TTITLE3=Don't Let Me Down 27.37
TTITLE4=Don't Let Me Down 27.38
TTITLE5=Don't Let Me Down 27.39
TTITLE6=Don't Let Me Down 27.40
TTITLE7=Get Back 27.41
TTITLE8=Get Back 27.42
TTITLE9=Get Back 27.43
TTITLE10=Get Back 27.44
TTITLE11=Get Back 27.45
TTITLE12=Get Back 27.46
TTITLE13=Get Back 27.47
TTITLE14=Get Back 27.48
TTITLE15=Get Back 27.49
TTITLE16=Get Back 27.50
TTITLE17=I've Got A Feeling 27.51
TTITLE18=Get Back 27.52
TTITLE19=Get Back 27.53
TTITLE20=Get Back 27.54
EXTD=
EXTT0=
EXTT1=
EXTT2=
EXTT3=
EXTT4=
EXTT5=
EXTT6=
EXTT7=
EXTT8=
EXTT9=
EXTT10=
EXTT11=
EXTT12=
EXTT13=
EXTT14=
EXTT15=
EXTT16=
EXTT17=
EXTT18=
EXTT19=
EXTT20=
PLAYORDER=
